<svg width="67" height="37" viewBox="0 0 67 37" fill="none" xmlns="http://www.w3.org/2000/svg">
<path fill-rule="evenodd" clip-rule="evenodd" d="M66.0922 3.33525C51.4621 -1.08527 37.065 0.231095 25.9374 5.44227C16.2893 9.9606 9.07434 17.4234 6.34523 26.6275C6.04224 26.5702 5.72958 26.5402 5.40991 26.5402C2.64849 26.5402 0.409912 28.7788 0.409912 31.5402C0.409912 34.3016 2.64849 36.5402 5.40991 36.5402C8.17134 36.5402 10.4099 34.3016 10.4099 31.5402C10.4099 29.4493 9.1265 27.6582 7.30449 26.9116C9.93905 18.0313 16.9158 10.7715 26.3615 6.34788C37.2536 1.24701 51.3956 -0.0607106 65.803 4.29251L66.0922 3.33525Z" fill="#E2A389"/>
</svg>
